# xmcd
#
# Track frame offsets: 
#        150
#        16648
#        35870
#        59600
#        79725
#        93565
#        107950
#        138275
#        160145
#
# Disc length: 2485 seconds
#
# Revision: 3
# Processed by: cddbd v1.5.2PL0 Copyright (c) Steve Scherf et al.
# Submitted via: ExactAudioCopyFreeDBPlugin 1.0
#
DISCID=7209b309
DTITLE=John Campbell - A Man And His Blues
DYEAR=1988
DGENRE=Blues
TTITLE0=Going To Dallas
TTITLE1=Bad Night Blues
TTITLE2=Judgement Day
TTITLE3=Bluebird
TTITLE4=Deep River Rag
TTITLE5=Texas Country Boy
TTITLE6=Sittin' Here Thinkin'
TTITLE7=Sunnyland Train
TTITLE8=White Lightnin'
EXTD=
EXTT0=
EXTT1=
EXTT2=
EXTT3=
EXTT4=
EXTT5=
EXTT6=
EXTT7=
EXTT8=
PLAYORDER=
